<?xml version="1.0" encoding="utf-8"?>
<!-- Generator: Adobe Illustrator 15.0.0, SVG Export Plug-In . SVG Version: 6.00 Build 0)  -->
<!DOCTYPE svg PUBLIC "-//W3C//DTD SVG 1.1//EN" "http://www.w3.org/Graphics/SVG/1.1/DTD/svg11.dtd">
<svg version="1.1" xmlns="http://www.w3.org/2000/svg" xmlns:xlink="http://www.w3.org/1999/xlink" x="0px" y="0px"
  width="141.73px" height="141.73px" viewBox="0 0 141.73 141.73" enable-background="new 0 0 141.73 141.73" xml:space="preserve">
<g id="_x32_" inkscape:export-ydpi="22.5" inkscape:export-xdpi="22.5" sodipodi:docname="1.svg" inkscape:version="0.91 r13725" xmlns:dc="http://purl.org/dc/elements/1.1/" xmlns:cc="http://creativecommons.org/ns#" xmlns:rdf="http://www.w3.org/1999/02/22-rdf-syntax-ns#" xmlns:svg="http://www.w3.org/2000/svg" xmlns:sodipodi="http://sodipodi.sourceforge.net/DTD/sodipodi-0.dtd" xmlns:inkscape="http://www.inkscape.org/namespaces/inkscape" inkscape:export-filename="C:\Users\noname\Desktop\icon_128x128.png">
 
  <sodipodi:namedview  id="namedview15" inkscape:current-layer="_x32_" inkscape:window-y="-8" inkscape:window-x="-8" inkscape:bbox-paths="true" inkscape:bbox-nodes="true" inkscape:snap-bbox="true" inkscape:window-height="1018" inkscape:window-width="1920" inkscape:pageshadow="2" inkscape:pageopacity="0" inkscape:cy="263.1999" inkscape:cx="171.87335" inkscape:zoom="1.3037281" showgrid="false" guidetolerance="10" gridtolerance="10" objecttolerance="10" borderopacity="1" bordercolor="#666666" pagecolor="#ffffff" inkscape:window-maximized="1" inkscape:snap-bbox-edge-midpoints="true" inkscape:snap-bbox-midpoints="true">
  </sodipodi:namedview>
 <g id="g4165" transform="matrix(0.97848667,0,0,0.97848667,5.6521654,13.057339)">
  <g id="g4154">
   
    <path id="path4156" sodipodi:nodetypes="ccccczsccccccccccccccccscccccscccccccsscccccccccscccccccccscccccsscccsscccccsc" inkscape:connector-curvature="0" fill="#003399" d="
    M138.968,77.522c-1.492-12.224-10.218-27.657-12.69-32.258c-2.904-5.419-3.48-7.924-8.72,0
    c-4.592,7.131-14.758,25.485-12.747,28.166c2.012,2.691,6.038-0.666,10.735-2.682c0.671,6.713-9.648,25.262-17.553,28.347
    c-7.904,3.086-21.488,1.982-21.488-9.863V65.73h12.319V52.313H76.505V39.631c4.464-1.894,8.244-5.017,10.952-8.961
    c1.357-1.99,2.443-4.188,3.192-6.531c0.753-2.353,1.168-4.853,1.19-7.431V16.69v-0.226c0.004-3.417-0.693-6.73-1.955-9.723
    c-1.89-4.498-5.031-8.323-9.001-11.038c-1.99-1.358-4.187-2.448-6.531-3.192c-2.353-0.753-4.852-1.169-7.431-1.195h0.026l0,0
    h-0.268c-3.417,0-6.73,0.693-9.723,1.955c-4.498,1.895-8.313,5.035-11.038,8.997c-1.358,1.989-2.44,4.187-3.192,6.539
    c-0.753,2.344-1.168,4.853-1.185,7.422v-0.026c-0.008,0.104-0.008,0.2-0.008,0.268c0,3.425,0.701,6.73,1.955,9.723
    c1.895,4.507,5.035,8.323,9.005,11.038c1.367,0.934,2.828,1.739,4.377,2.396v12.682H44.551V65.73H56.87v23.504
    c0,11.426-10.087,15.226-21.488,9.863C23.98,93.732,17.162,77.461,17.828,70.749c4.698,2.015,8.724,5.371,10.74,2.682
    c2.007-2.682-9.412-21.454-12.751-28.166c-4.122-8.288-4.786-6.697-9.346,1.149C3.998,51.221-4.101,65.298-5.593,77.521
    c-0.511,4.615-0.059,7.327,5.065,2.094c1.946-1.946,3.676-3.408,4.472-4.481c2.012,10.736,13.276,28.381,32.13,38.571
    c18.114,9.784,26.341,11.618,29.905,14.715c0.13,0.121,0.424,0.328,0.71,0.328c0.285,0,0.58-0.208,0.71-0.328
    c3.564-3.097,11.791-4.931,29.905-14.715c18.853-10.19,30.118-27.835,32.125-38.571c0.8,1.073,2.531,2.535,4.477,4.481
    C139.028,84.848,139.376,82.136,138.968,77.522z M56.74,16.397v-0.018c0.017-1.384,0.303-2.673,0.804-3.84
    c0.761-1.766,2.033-3.279,3.616-4.343c0.796-0.527,1.661-0.951,2.587-1.237c0.926-0.285,1.903-0.433,2.932-0.441
    c0.052,0,0.069,0,0.078,0.008h0.026c1.385,0.009,2.664,0.294,3.841,0.804c1.756,0.754,3.279,2.033,4.334,3.617
    c0.536,0.795,0.951,1.661,1.237,2.586c0.285,0.926,0.441,1.894,0.441,2.933v0.112c-0.017,1.384-0.302,2.656-0.804,3.832
    c-0.761,1.757-2.033,3.279-3.616,4.333c-0.796,0.537-1.661,0.952-2.587,1.238c-0.925,0.285-1.902,0.441-2.932,0.441h-0.104l0,0
    c-1.384-0.017-2.664-0.302-3.841-0.813c-1.756-0.753-3.279-2.024-4.334-3.616c-0.536-0.787-0.952-1.661-1.237-2.578
    c-0.285-0.926-0.441-1.903-0.441-2.941V16.397z"/>
  </g>
 </g>
</g>
<g id="レイヤー_3">
 <g>
  <g>
   <polyline fill="#4BA277" points="108.365,15.933 108.365,36.718 108.365,36.719 108.365,39.985    "/>
   <polyline fill="none" stroke="#4DA379" stroke-width="8" stroke-miterlimit="10" points="108.365,15.933 108.365,36.718 
    108.365,36.719 108.365,39.985    "/>
  </g>
  <polygon fill="#4BA277" stroke="#4DA379" stroke-miterlimit="10" points="97.99,15.723 108.396,1.104 118.741,15.64 
   118.741,19.77 97.99,19.77   "/>
 </g>
 <g>
  <g>
   <polyline fill="#4BA277" points="130.74,30.53 130.74,9.746 130.74,9.744 130.74,6.479    "/>
   <polyline fill="none" stroke="#4DA379" stroke-width="8" stroke-miterlimit="10" points="130.74,30.53 130.74,9.746 
    130.74,9.744 130.74,6.479    "/>
  </g>
  <polygon fill="#4BA277" stroke="#4DA379" stroke-miterlimit="10" points="141.115,30.74 130.71,45.36 120.364,30.823 
   120.364,26.693 141.115,26.693   "/>
 </g>
</g>
</svg>
